<?xml version="1.0" encoding="UTF-8"?>
<svg width="653px" height="316px" viewBox="0 0 653 316" version="1.1" xmlns="http://www.w3.org/2000/svg" xmlns:xlink="http://www.w3.org/1999/xlink">
    <!-- Generator: Sketch 64 (93537) - https://sketch.com -->
    <title>logo</title>
    <desc>Created with Sketch.</desc>
    <g id="Page-1" stroke="none" stroke-width="1" fill="none" fill-rule="evenodd">
        <g id="logo" fill="#000000" fill-rule="nonzero">
            <polygon id="Path" points="173.53 158.74 154.08 158.74 154.08 251.61 212.32 251.61 212.32 234.42 173.53 234.42"></polygon>
            <polygon id="Path" points="259.34 213.45 289.54 213.45 289.54 196.27 259.34 196.27 259.34 175.92 296.74 175.92 296.74 158.74 239.88 158.74 239.88 251.61 298.76 251.61 298.76 234.42 259.34 234.42"></polygon>
            <path d="M363.17,218.31 C362.42,220.52 361.7,223.24 361.13,225.62 C360.55,223.24 359.84,220.53 359.09,218.32 L339.02,158.74 L318.07,158.74 L351.95,251.61 L370.33,251.61 L404.21,158.74 L383.38,158.74 L363.17,218.31 Z" id="Path"></path>
            <polygon id="Path" points="448.77 213.45 478.97 213.45 478.97 196.27 448.77 196.27 448.77 175.92 486.17 175.92 486.17 158.74 429.31 158.74 429.31 251.61 488.19 251.61 488.19 234.42 448.77 234.42"></polygon>
            <polygon id="Path" points="539.12 234.42 539.12 158.74 519.67 158.74 519.67 251.61 577.91 251.61 577.91 234.42"></polygon>
            <path d="M96.58,80.72 C96.58,82.63 96.69,84.93 96.83,87.11 C95.55,84.66 94.06,81.98 92.66,79.85 L58.2,27.34 L39.47,27.34 L39.47,120.21 L58.93,120.21 L58.93,66.95 C58.93,65.04 58.82,62.74 58.68,60.56 C59.97,63.01 61.46,65.69 62.86,67.82 L97.32,120.21 L115.92,120.21 L115.92,27.34 L96.59,27.34 L96.59,80.72 L96.58,80.72 Z" id="Path"></path>
            <polygon id="Path" points="172.67 82.05 202.87 82.05 202.87 64.87 172.67 64.87 172.67 44.52 210.07 44.52 210.07 27.34 153.21 27.34 153.21 120.21 212.09 120.21 212.09 103.02 172.67 103.02"></polygon>
            <path d="M313.29,27.34 L290.85,27.34 L277.87,50.15 C276.22,53.16 274.68,56.31 273.66,58.49 C272.56,56.3 270.93,53.1 269.27,50.14 L256.56,27.34 L234.25,27.34 L261.99,73.14 L233.09,120.21 L255.03,120.21 L269.25,95.3 C270.99,92.32 272.56,89.29 273.59,87.21 C274.65,89.3 276.23,92.34 277.88,95.29 L292.24,120.21 L314.3,120.21 L285.28,73.15 L313.29,27.34 Z" id="Path"></path>
            <polygon id="Path" points="330.89 27.34 330.89 44.52 360.33 44.52 360.33 120.2 379.79 120.2 379.79 44.52 409.23 44.52 409.23 27.34"></polygon>
            <path d="M612.43,134.32 L611.5,134.32 L610.19,134.32 L486.44,134.32 L486.44,43.68 L446.39,0.87 L0.87,0.87 L0.87,141.54 L0.88,142.87 L0.88,143.8 L43.69,183.78 L118.63,183.78 L118.63,274.55 L118.65,275.94 L118.68,276.86 L159.86,315.32 L648.11,315.32 L649.54,315.28 L652.44,315.29 L652.96,177.14 L612.43,134.32 Z M446.38,15.06 L476.95,47.49 L476.95,134.33 L446.38,134.33 L446.38,15.06 Z M118.62,174.3 L47.48,174.3 L14.79,143.8 L118.62,143.8 L118.62,174.3 Z M10.34,134.32 L10.34,10.34 L436.9,10.34 L436.9,134.32 L10.34,134.32 Z M128.1,143.8 L602.97,143.8 L602.97,267.38 L128.1,267.38 L128.1,143.8 Z M163.64,305.83 L132.7,276.85 L605.81,276.85 L636.24,305.83 L163.64,305.83 Z M643,299.18 L612.45,270.09 L612.45,147.91 L643.44,180.95 L643,299.18 Z" id="Shape"></path>
        </g>
    </g>
</svg>